# xmcd
#
# Track frame offsets:
#	182
#	12505
#	25830
#	37470
#	50172
#	67585
#	82165
#	98552
#	112692
#	128017
#
# Disc length: 1852 seconds
#
# Revision: 2
# Processed by: cddbd v1.5.2PL0 Copyright (c) Steve Scherf et al.
# Submitted via: EasyCDDAExtractor 15.3.0.1
#
DISCID=7c073a0a
DTITLE=Cher - Bang, Bang and Other Hits
DYEAR=1994
DGENRE=Pop
TTITLE0=Bang Bang (My Baby Shot Me Down)
TTITLE1=All I Really Want To Do
TTITLE2=Needles And Pins
TTITLE3=Alfie
TTITLE4=Like A Rolling Stone
TTITLE5=Where Do You Go
TTITLE6=You Better Sit Down Kids
TTITLE7=Sunny
TTITLE8=Hey Joe
TTITLE9=Elusive Butterfly
EXTD=
EXTT0=
EXTT1=
EXTT2=
EXTT3=
EXTT4=
EXTT5=
EXTT6=
EXTT7=
EXTT8=
EXTT9=
PLAYORDER=
